<svg width="133" height="133" viewBox="0 0 133 133" fill="none" xmlns="http://www.w3.org/2000/svg">
<path d="M112.405 127.718C132.551 150.372 145.458 82.7241 113.359 70.2528C86.4219 59.7546 59.317 77.7519 32.1559 119.746C32.1559 119.746 82.3254 93.9334 112.405 127.718V127.718Z" fill="#0B5567"/>
<path d="M32.6047 119.192C51.9095 91.0121 84.0087 59.5963 113.92 71.1995C120.878 73.9618 125.817 79.6457 129.016 86.4338L100.732 6.15665C96.691 -2.92096 86.3653 -1.02681 80.5289 5.91988L5.7803 94.0119C-1.00997 102.221 -1.40274 116.824 4.88203 125.665C10.4379 133.48 19.2486 134.19 25.3656 127.244L32.6047 119.192V119.192Z" fill="#15A9CE"/>
</svg>
