<svg width="133" height="133" viewBox="0 0 133 133" fill="none" xmlns="http://www.w3.org/2000/svg">
<path d="M46.216 87.0538L62.9968 70.2061L37.7975 70.2071H37.7372C23.7733 70.2071 12.4532 81.5721 12.4532 95.5892C12.4532 109.609 23.7722 120.972 37.7362 120.972C38.7965 120.972 39.8403 120.899 40.8664 120.772C35.3479 109.858 37.1268 96.1776 46.216 87.0538" fill="#87C040"/>
<path d="M66.6746 95.5581V71.7339L48.8572 89.6237L48.8141 89.6654C38.9399 99.5783 38.9399 115.65 48.8141 125.563C58.6883 135.476 74.6972 135.476 84.5708 125.563C85.3205 124.81 85.9933 124.011 86.6297 123.194C75.0458 119.39 66.6756 108.459 66.6746 95.5581Z" fill="#87C040"/>
<path d="M87.1327 87.0488L70.3518 70.2021V95.5608C70.3518 109.581 81.6724 120.943 95.6358 120.943C109.6 120.943 120.92 109.58 120.92 95.5613C120.92 94.4968 120.847 93.449 120.72 92.4189C109.849 97.9606 96.2219 96.1737 87.1321 87.0488" fill="#87C040"/>
<path d="M125.491 48.544C124.742 47.7919 123.947 47.116 123.133 46.4771C119.344 58.1059 108.454 66.5095 95.6047 66.5095H71.8746L89.734 84.4399C99.6082 94.3529 115.618 94.3529 125.491 84.4399C135.365 74.5275 135.365 58.4559 125.491 48.544" fill="#87C040"/>
<path d="M95.6078 12.0522C94.5474 12.0522 93.5037 12.1247 92.4776 12.2525C97.9961 23.1674 96.2172 36.8466 87.128 45.9709L70.3487 62.8176H95.6083C109.571 62.8176 120.891 51.4526 120.891 37.4344C120.892 23.4157 109.572 12.0522 95.6078 12.0522" fill="#ED9A2D"/>
<path d="M84.5298 7.46162C74.6556 -2.45027 58.6468 -2.45027 48.7731 7.46266C48.0249 8.21476 47.3516 9.01277 46.7157 9.83058C58.2982 13.6349 66.6694 24.5665 66.6694 37.4659V61.2901L84.4867 43.4019L84.5298 43.3596C94.404 33.4467 94.404 17.3751 84.5298 7.46162" fill="#5698C6"/>
<path d="M46.2362 45.9888L46.9552 46.7419L62.975 62.8239H62.9921V37.4642C62.9921 23.4455 51.6715 12.0811 37.7081 12.0811C23.7441 12.0811 12.4241 23.4445 12.4251 37.4632C12.4251 38.5256 12.4973 39.5703 12.6231 40.5978C23.502 35.0614 37.146 36.8634 46.2362 45.9893" fill="#5698C6"/>
<path d="M10.2857 86.3275C10.4821 85.7393 10.6971 85.1574 10.9304 84.5829C10.9595 84.5104 10.9855 84.4368 11.0156 84.3664C11.2727 83.7541 11.551 83.151 11.85 82.5581C11.9144 82.4278 11.9814 82.2989 12.0495 82.168C12.3524 81.5806 12.6752 81.0038 13.0174 80.4385C13.0537 80.378 13.0937 80.3206 13.1301 80.2622C13.4556 79.7376 13.798 79.2238 14.1567 78.7215C14.2294 78.6177 14.3022 78.5129 14.3775 78.4101C14.7612 77.886 15.162 77.3748 15.5792 76.8772C15.6639 76.776 15.7506 76.6775 15.8374 76.5789C16.2434 76.1053 16.6646 75.645 17.1004 75.1988C17.1393 75.1597 17.1747 75.1185 17.2136 75.0799C17.6787 74.6134 18.1596 74.163 18.6553 73.7296C19.2534 73.2016 19.8723 72.6979 20.5106 72.2196C20.5797 72.1685 20.6519 72.1205 20.7205 72.0715C21.2113 71.7134 21.713 71.3708 22.225 71.044C22.3263 70.9793 22.4261 70.9126 22.5284 70.8484C23.0832 70.5049 23.6493 70.1802 24.2257 69.8746C24.3473 69.811 24.4699 69.7495 24.5925 69.6869C25.1683 69.3891 25.754 69.1109 26.3485 68.8529C26.3782 68.8414 26.4057 68.8268 26.4353 68.8143C27.0554 68.5531 27.6845 68.3138 28.3212 68.0966C29.0904 67.8309 29.87 67.5965 30.6581 67.3941C30.7573 67.3701 30.8596 67.3482 30.9589 67.3257C31.5615 67.1797 32.1709 67.0545 32.7871 66.9471C32.9024 66.9278 33.0162 66.9038 33.1315 66.8866C33.8046 66.7792 34.4813 66.6961 35.1603 66.6373C35.3079 66.6242 35.4564 66.6143 35.604 66.6023C36.3145 66.5478 37.0267 66.519 37.7393 66.5157L61.4704 66.5147L43.61 48.5842C33.7358 38.6723 17.7259 38.6713 7.85323 48.5842C-2.02098 58.4971 -2.02098 74.5688 7.85323 84.4812C8.59198 85.2228 9.37516 85.9185 10.1984 86.5643C10.2254 86.4845 10.2587 86.4078 10.2857 86.3275" fill="#5698C6"/>
<path d="M43.6692 48.5841L57.8108 62.7812H38.8027L37.7247 62.8036C26.1495 62.8036 16.3912 54.9947 13.3914 44.338C23.0209 38.9168 35.4346 40.3188 43.6266 48.5419L43.6681 48.5836" fill="#446BA6"/>
<path d="M62.9828 37.4584V57.5357L49.542 44.0427L48.7643 43.2937C40.5785 35.0769 39.1789 22.6265 44.5638 12.9624C55.1919 15.9656 62.9823 25.769 62.9823 37.3979V37.4584" fill="#446BA6"/>
<path d="M84.6072 43.3402L70.4656 57.5379V38.4563L70.4432 37.374C70.4432 25.7535 78.2222 15.9558 88.8372 12.9453C94.2373 22.6126 92.8408 35.0744 84.6498 43.298L84.6072 43.3397" fill="#446BA6"/>
<path d="M95.5917 62.7644H75.5928L89.0331 49.2714L89.7792 48.4912C97.9639 40.2733 110.365 38.8682 119.992 44.2738C117.001 54.9435 107.235 62.7644 95.6519 62.7644H95.5917Z" fill="#FFF101"/>
<path d="M89.6856 84.3396L75.544 70.1425H94.5516L95.6296 70.1201C107.205 70.1212 116.963 77.9301 119.963 88.5868C110.332 94.0069 97.9197 92.606 89.7277 84.3814L89.6856 84.3396" fill="#45AB47"/>
<path d="M70.41 95.444V75.3662L83.8503 88.8592L84.6291 89.6087C92.8137 97.8265 94.2134 110.274 88.8284 119.939C78.2004 116.936 70.41 107.134 70.41 95.5035V95.444Z" fill="#45AB47"/>
<path d="M48.9185 89.682L63.0602 75.4839V94.566L63.0825 95.6477C63.0825 107.268 55.3036 117.066 44.689 120.078C39.2885 110.408 40.6855 97.9473 48.8764 89.7237L48.918 89.682" fill="#45AB47"/>
<path d="M37.8245 70.2476H57.8233L44.3831 83.7405L43.637 84.5213C35.4513 92.7392 23.0506 94.1443 13.4232 88.7382C16.4157 78.0674 26.1797 70.2476 37.7642 70.2476H37.8245" fill="#45AB47"/>
</svg>
