<svg width="133" height="133" viewBox="0 0 133 133" fill="none" xmlns="http://www.w3.org/2000/svg">
<g clip-path="url(#clip0)">
<path d="M48.2514 94.3377C58.4015 102.59 60.1102 111.358 53.3771 120.641C45.0781 131.818 29.7176 135.879 16.7148 129.59L16.6057 129.537L16.5116 129.492C1.89463 122.36 -4.14908 104.775 3.01214 90.2162L19.221 57.2645L28.3289 38.7484L39.2754 16.4953C44.5944 5.68123 55.6885 -0.439363 67.0454 0.0240585C78.0164 -0.017504 88.5753 6.0527 93.7239 16.5192L129.987 90.2407C137.148 104.799 131.104 122.384 116.488 129.516L116.394 129.562L116.285 129.615C101.758 136.64 84.2876 130.749 77.0095 116.446C73.2377 108.544 75.7533 101.086 84.5567 94.0717H84.5541C91.175 88.7444 95.4092 80.5919 95.4092 71.4544C95.4092 55.4061 82.3472 42.3955 66.2344 42.3955C50.1217 42.3955 37.0596 55.4056 37.0596 71.4544C37.0596 80.7457 41.4372 89.0182 48.2503 94.3377H48.2514ZM66.2614 86.684C57.7952 86.684 50.9322 79.848 50.9322 71.4155C50.9322 62.9835 57.7952 56.1475 66.2614 56.1475C74.7272 56.1475 81.5902 62.9829 81.5902 71.4155C81.5902 79.8474 74.7272 86.684 66.2614 86.684Z" fill="#FF8F34"/>
</g>
<defs>
<clipPath id="clip0">
<rect width="133" height="133" fill="white"/>
</clipPath>
</defs>
</svg>
