<svg width="775" height="581" viewBox="0 0 775 581" fill="none" xmlns="http://www.w3.org/2000/svg">
<mask id="mask0" mask-type="alpha" maskUnits="userSpaceOnUse" x="0" y="0" width="775" height="581">
<path fill-rule="evenodd" clip-rule="evenodd" d="M358.691 17.0398C442.285 47.2145 429.988 144.349 501.256 188.152C553.815 220.456 679.566 177.115 697.666 225.38C718.574 281.13 554.959 310.683 568.559 367.615C586.825 444.075 796.504 465.811 773.194 541.542C753.634 605.09 599.406 561.721 509.951 558.023C456.399 555.809 412.072 520.586 358.691 524.406C295.746 528.911 252.422 582.202 189.195 580.979C119.013 579.622 15.5764 567.484 1.4936 517.497C-15.0024 458.944 110.18 425.782 129.084 367.615C141.73 328.704 90.6234 293.612 87.2226 253.706C81.1623 182.591 38.717 98.5792 101.493 43.8512C157.913 -5.33583 279.777 -11.4455 358.691 17.0398Z" fill="#C4C4C4"/>
</mask>
<g mask="url(#mask0)">
<path fill-rule="evenodd" clip-rule="evenodd" d="M358.691 17.0398C442.285 47.2145 429.988 144.349 501.256 188.152C553.815 220.456 679.566 177.115 697.666 225.38C718.574 281.13 554.959 310.683 568.559 367.615C586.825 444.075 796.504 465.811 773.194 541.542C753.634 605.09 599.406 561.721 509.951 558.023C456.399 555.809 412.072 520.586 358.691 524.406C295.746 528.911 252.422 582.202 189.195 580.979C119.013 579.622 15.5764 567.484 1.4936 517.497C-15.0024 458.944 110.18 425.782 129.084 367.615C141.73 328.704 90.6234 293.612 87.2226 253.706C81.1623 182.591 38.717 98.5792 101.493 43.8512C157.913 -5.33583 279.777 -11.4455 358.691 17.0398Z" fill="#3D3D3D"/>
<g filter="url(#filter0_b)">
<path fill-rule="evenodd" clip-rule="evenodd" d="M358.691 17.0398C442.285 47.2145 429.988 144.349 501.256 188.152C553.815 220.456 679.566 177.115 697.666 225.38C718.574 281.13 554.959 310.683 568.559 367.615C586.825 444.075 796.504 465.811 773.194 541.542C753.634 605.09 599.406 561.721 509.951 558.023C456.399 555.809 412.072 520.586 358.691 524.406C295.746 528.911 252.422 582.202 189.195 580.979C119.013 579.622 15.5764 567.484 1.4936 517.497C-15.0024 458.944 110.18 425.782 129.084 367.615C141.73 328.704 90.6234 293.612 87.2226 253.706C81.1623 182.591 38.717 98.5792 101.493 43.8512C157.913 -5.33583 279.777 -11.4455 358.691 17.0398Z" fill="#C4C4C4" fill-opacity="0.01"/>
</g>
</g>
<g clip-path="url(#clip0)">
<path d="M130.689 459.65C132.351 460.386 134.137 460.571 135.872 460.186C137.608 459.8 139.236 458.859 140.599 457.451C144.07 453.781 145.158 447.737 146.043 442.14L148.663 425.582L143.179 430.337C139.236 433.757 135.204 437.287 132.474 442.241C129.743 447.195 128.552 453.957 130.745 459.317" fill="white"/>
<path d="M131.535 480.849C130.845 474.516 130.135 468.1 130.62 461.699C131.05 456.014 132.427 450.463 135.231 445.909C136.719 443.496 138.53 441.43 140.581 439.801C141.116 439.376 141.609 440.444 141.076 440.867C137.526 443.694 134.78 447.867 133.234 452.786C131.526 458.255 131.252 464.218 131.546 470.029C131.724 473.543 132.102 477.033 132.481 480.52C132.511 480.678 132.492 480.844 132.429 480.985C132.365 481.126 132.261 481.231 132.139 481.28C132.013 481.322 131.88 481.301 131.767 481.22C131.654 481.139 131.571 481.006 131.536 480.848L131.535 480.849Z" fill="white"/>
<path d="M136.503 470.687C137.216 472.052 138.196 473.163 139.349 473.913C140.502 474.663 141.789 475.026 143.086 474.967C146.419 474.768 149.196 471.839 151.696 469.057L159.093 460.832L154.198 460.536C150.677 460.324 147.066 460.125 143.713 461.494C140.36 462.863 137.268 466.152 136.655 470.524" fill="white"/>
<path d="M129.585 484.49C132.907 477.084 136.761 468.854 143.647 466.224C145.562 465.495 147.569 465.234 149.562 465.455C150.19 465.523 150.033 466.742 149.406 466.674C146.066 466.325 142.733 467.436 139.967 469.82C137.306 472.102 135.233 475.274 133.479 478.638C132.405 480.699 131.443 482.847 130.48 484.993C130.173 485.678 129.273 485.183 129.585 484.49Z" fill="white"/>
<path d="M463.066 192.489H188.275V356.731H463.066V192.489Z" fill="#E6E6E6"/>
<path d="M455.208 206.573H196.133V343.605H455.208V206.573Z" fill="white"/>
<path d="M462.948 183H188.158V197.704H462.948V183Z" fill="#6C63FF"/>
<path d="M196.833 192.527C198.028 192.527 198.997 191.307 198.997 189.801C198.997 188.296 198.028 187.076 196.833 187.076C195.638 187.076 194.67 188.296 194.67 189.801C194.67 191.307 195.638 192.527 196.833 192.527Z" fill="white"/>
<path d="M205.046 192.527C206.241 192.527 207.21 191.307 207.21 189.801C207.21 188.296 206.241 187.076 205.046 187.076C203.851 187.076 202.882 188.296 202.882 189.801C202.882 191.307 203.851 192.527 205.046 192.527Z" fill="white"/>
<path d="M213.259 192.527C214.454 192.527 215.423 191.307 215.423 189.801C215.423 188.296 214.454 187.076 213.259 187.076C212.064 187.076 211.096 188.296 211.096 189.801C211.096 191.307 212.064 192.527 213.259 192.527Z" fill="white"/>
<path d="M257.322 311.543H388.261V283.275C388.242 280.294 387.749 277.348 386.813 274.61C385.877 271.872 384.516 269.398 382.811 267.331L382.775 267.287C380.437 264.332 372.621 256.83 364.534 257.466C360.263 257.801 356.605 260.394 353.665 265.174C344.51 280.056 332.486 275.032 326.132 270.713C320.533 266.906 314.815 265.119 309.136 265.404C301.182 265.796 289.987 269.486 281.823 284.845C278.704 290.706 271.923 298.662 257.322 303.338V311.543Z" fill="#E4E4E4"/>
<path d="M395.67 312.201H257.574C257.459 312.201 257.349 312.143 257.268 312.041C257.187 311.939 257.142 311.801 257.142 311.656V228.285C257.142 228.14 257.187 228.002 257.268 227.9C257.349 227.798 257.459 227.74 257.574 227.74C257.689 227.74 257.798 227.798 257.88 227.9C257.961 228.002 258.006 228.14 258.006 228.285V311.112H395.67C395.785 311.112 395.894 311.169 395.975 311.271C396.057 311.373 396.102 311.512 396.102 311.656C396.102 311.801 396.057 311.939 395.975 312.041C395.894 312.143 395.785 312.201 395.67 312.201Z" fill="#3F3D56"/>
<path d="M283.842 280.14H282.995V311.434H283.842V280.14Z" fill="#3F3D56"/>
<path d="M309.219 265.524H308.371V311.434H309.219V265.524Z" fill="#3F3D56"/>
<path d="M334.648 275.133H333.801V311.434H334.648V275.133Z" fill="#3F3D56"/>
<path d="M360.077 257.517H359.23V311.434H360.077V257.517Z" fill="#3F3D56"/>
<path d="M385.507 269.795H384.659V311.434H385.507V269.795Z" fill="#3F3D56"/>
<path d="M308.848 269.526C310.28 269.526 311.441 268.064 311.441 266.26C311.441 264.456 310.28 262.994 308.848 262.994C307.415 262.994 306.254 264.456 306.254 266.26C306.254 268.064 307.415 269.526 308.848 269.526Z" fill="#6C63FF"/>
<path d="M359.706 260.985C361.138 260.985 362.299 259.522 362.299 257.719C362.299 255.915 361.138 254.452 359.706 254.452C358.274 254.452 357.113 255.915 357.113 257.719C357.113 259.522 358.274 260.985 359.706 260.985Z" fill="#6C63FF"/>
<path d="M334.277 278.602C335.709 278.602 336.87 277.139 336.87 275.335C336.87 273.531 335.709 272.069 334.277 272.069C332.845 272.069 331.684 273.531 331.684 275.335C331.684 277.139 332.845 278.602 334.277 278.602Z" fill="#6C63FF"/>
<path d="M283.418 283.406C284.85 283.406 286.011 281.944 286.011 280.14C286.011 278.336 284.85 276.874 283.418 276.874C281.986 276.874 280.825 278.336 280.825 280.14C280.825 281.944 281.986 283.406 283.418 283.406Z" fill="#6C63FF"/>
<path d="M385.135 272.729C386.567 272.729 387.728 271.267 387.728 269.463C387.728 267.659 386.567 266.197 385.135 266.197C383.703 266.197 382.542 267.659 382.542 269.463C382.542 271.267 383.703 272.729 385.135 272.729Z" fill="#6C63FF"/>
<path d="M172.026 479.531H177.222L179.694 454.287L172.026 454.288L172.026 479.531Z" fill="#FFB6B6"/>
<path d="M170.701 477.395L180.934 477.394H180.934C182.664 477.394 184.322 478.26 185.545 479.8C186.768 481.341 187.455 483.43 187.455 485.608V485.875L170.701 485.876L170.701 477.395Z" fill="#2F2E41"/>
<path d="M196.608 479.531H201.804L204.276 454.287L196.607 454.288L196.608 479.531Z" fill="#FFB6B6"/>
<path d="M195.282 477.395L205.515 477.394H205.516C207.245 477.394 208.904 478.26 210.127 479.8C211.349 481.341 212.037 483.43 212.037 485.608V485.875L195.283 485.876L195.282 477.395Z" fill="#2F2E41"/>
<path d="M206.305 364.123C206.744 363.493 207.068 362.75 207.255 361.945C207.441 361.14 207.485 360.293 207.383 359.465C207.282 358.636 207.037 357.846 206.667 357.149C206.297 356.452 205.81 355.867 205.24 355.433L196.784 304.297L187.572 308.868L198.781 357.696C198.265 358.949 198.133 360.397 198.409 361.765C198.684 363.134 199.349 364.327 200.276 365.119C201.204 365.911 202.33 366.248 203.441 366.064C204.552 365.881 205.571 365.19 206.305 364.123V364.123Z" fill="#FFB6B6"/>
<path d="M166.454 354.276L162.624 359.173C162.624 359.173 158.518 378.126 166.375 401.501L171.631 469.272L181.086 470.168L183.909 391.323L196.933 417.495L194.658 469.888L205.11 469.586L209.833 411.529L196.933 350.947L166.454 354.276Z" fill="#2F2E41"/>
<path d="M179.845 360.873C174.078 360.822 168.318 360.343 162.596 359.438L162.366 359.399L168.073 327.804L166.108 287.151L184.666 286.351C186.346 286.274 187.989 286.982 189.28 288.338C190.571 289.694 191.419 291.603 191.661 293.698L195.459 326.132L198.973 354.907L198.926 354.994C196.401 359.657 187.959 360.873 179.845 360.873Z" fill="#6C63FF"/>
<path d="M182.978 293.074L186.748 287.12C186.748 287.12 193.358 281.426 195.451 293.627C197.543 305.829 201.43 325.637 201.43 325.637L188.504 326.955L182.978 293.074Z" fill="#6C63FF"/>
<path d="M147.246 364.657C146.807 364.027 146.483 363.284 146.296 362.479C146.11 361.674 146.066 360.827 146.167 359.999C146.269 359.17 146.513 358.38 146.884 357.683C147.254 356.986 147.741 356.4 148.311 355.967L156.766 304.831L165.979 309.402L154.77 358.23C155.285 359.483 155.418 360.931 155.142 362.299C154.867 363.668 154.202 364.861 153.275 365.653C152.347 366.445 151.221 366.782 150.11 366.598C148.999 366.415 147.98 365.724 147.246 364.657V364.657Z" fill="#FFB6B6"/>
<path d="M170.573 293.608L166.803 287.654C166.803 287.654 160.192 281.96 158.1 294.161C156.008 306.363 152.121 326.171 152.121 326.171L165.047 327.489L170.573 293.608Z" fill="#6C63FF"/>
<path d="M186.464 280.405H161.882C161.377 280.404 160.892 280.151 160.534 279.701C160.177 279.25 159.976 278.64 159.975 278.003V264.657C159.975 259.914 161.471 255.365 164.134 252.011C166.796 248.657 170.408 246.773 174.173 246.773C177.939 246.773 181.55 248.657 184.213 252.011C186.875 255.365 188.371 259.914 188.371 264.657V278.003C188.371 278.64 188.169 279.25 187.812 279.701C187.454 280.151 186.97 280.404 186.464 280.405Z" fill="#2F2E41"/>
<path d="M176.887 279.601C182.636 279.601 187.297 273.731 187.297 266.49C187.297 259.248 182.636 253.378 176.887 253.378C171.138 253.378 166.478 259.248 166.478 266.49C166.478 273.731 171.138 279.601 176.887 279.601Z" fill="#FFB6B6"/>
<path d="M191.73 265.991H176.699L176.545 263.273L175.774 265.991H173.46L173.154 260.604L171.627 265.991H167.149V265.724C167.152 261.974 168.336 258.378 170.442 255.726C172.547 253.074 175.402 251.582 178.38 251.578H180.499C183.477 251.582 186.331 253.074 188.437 255.726C190.542 258.378 191.727 261.974 191.73 265.724V265.991Z" fill="#2F2E41"/>
<path d="M176.576 282.896C176.463 282.896 176.35 282.884 176.239 282.859L165.232 280.413V257.5H177.348L177.048 257.941C172.875 264.072 176.019 274.013 178.264 279.393C178.43 279.787 178.504 280.232 178.477 280.677C178.451 281.121 178.325 281.547 178.115 281.906C177.939 282.213 177.708 282.462 177.44 282.634C177.173 282.807 176.876 282.896 176.576 282.896Z" fill="#2F2E41"/>
<path d="M480.317 479.531H475.122L472.649 454.287L480.318 454.288L480.317 479.531Z" fill="#9E616A"/>
<path d="M481.642 485.876L464.889 485.875V485.608C464.889 483.43 465.576 481.341 466.799 479.8C468.022 478.26 469.68 477.394 471.41 477.394H471.41L481.643 477.395L481.642 485.876Z" fill="#2F2E41"/>
<path d="M461.669 479.531H456.473L454.001 454.287L461.67 454.288L461.669 479.531Z" fill="#9E616A"/>
<path d="M462.994 485.876L446.24 485.875V485.608C446.241 483.43 446.928 481.341 448.151 479.8C449.374 478.26 451.032 477.394 452.762 477.394H452.762L462.995 477.395L462.994 485.876Z" fill="#2F2E41"/>
<path d="M401.154 302.641C401.569 303.36 402.105 303.956 402.723 304.387C403.34 304.817 404.026 305.072 404.73 305.132C405.435 305.193 406.141 305.059 406.8 304.738C407.459 304.418 408.054 303.92 408.543 303.279L418.824 308.336L422.788 301.215L408.189 294.331C407.279 293.367 406.12 292.857 404.932 292.897C403.744 292.937 402.608 293.525 401.741 294.55C400.874 295.574 400.335 296.964 400.227 298.455C400.119 299.946 400.449 301.435 401.154 302.641Z" fill="#9E616A"/>
<path d="M461.604 345.781L448.067 351.343L452.589 472.095L463.036 472.421L468.383 387.265L469.597 472.085L482.515 472.982L487.277 345.781H461.604Z" fill="#2F2E41"/>
<path d="M452.47 274.6L487.213 265.091L491.076 302.772L487.859 320.777L489.148 348.138C489.148 348.138 461.676 365.36 448.067 351.343C448.067 351.343 459.005 315.154 452.665 298.213L452.47 274.6Z" fill="#3F3D56"/>
<path d="M458.487 279.929L452.47 274.599C452.47 274.599 452.115 273.979 447.101 281.363C442.087 288.746 431.915 300.491 431.915 300.491L414.962 292.483L411.874 306.857L431.576 318.422L459.47 294.957L458.487 279.929Z" fill="#3F3D56"/>
<path d="M489.154 362.263C489.792 361.883 490.357 361.331 490.808 360.647C491.259 359.962 491.585 359.162 491.764 358.301C491.942 357.441 491.969 356.541 491.842 355.667C491.715 354.792 491.437 353.963 491.028 353.238L496.888 341.456L492.072 335.225L483.983 352.009C483.061 352.955 482.447 354.294 482.258 355.772C482.068 357.25 482.315 358.765 482.952 360.029C483.59 361.293 484.573 362.218 485.716 362.63C486.859 363.042 488.082 362.911 489.154 362.263V362.263Z" fill="#9E616A"/>
<path d="M481.794 272.514L487.213 265.091C487.213 265.091 493.25 262.443 498.184 276.128C503.117 289.814 508.626 317.574 508.626 317.574L495.744 348.828L485.74 343.198L495.744 317.353L485.158 298.213L481.794 272.514Z" fill="#3F3D56"/>
<path d="M472.605 262.001C478.07 258.238 480.079 249.607 477.091 242.723C474.104 235.839 467.252 233.309 461.786 237.072C456.321 240.835 454.313 249.466 457.3 256.35C460.288 263.234 467.14 265.764 472.605 262.001Z" fill="#9E616A"/>
<path d="M477.802 238.18L478.349 236.794L475.598 235.072C475.598 235.072 472.563 228.853 467.072 230.601C461.58 232.348 459.109 233.394 459.109 233.394L456.365 235.134L457.743 236.86L455.272 237.906L456.923 238.939L455.002 240.329L456.036 247.457C456.036 247.457 457.753 242.051 461.054 244.117C464.355 246.183 470.394 243.049 470.394 243.049L475.64 255.837C475.64 255.837 476.722 251.354 478.652 252.549C478.652 252.549 483.581 242.661 477.802 238.18Z" fill="#2F2E41"/>
<path d="M241.146 486H114.424C114.311 486 114.204 485.944 114.124 485.844C114.045 485.744 114 485.608 114 485.466C114 485.325 114.045 485.189 114.124 485.089C114.204 484.989 114.311 484.932 114.424 484.932H241.146C241.258 484.932 241.366 484.989 241.446 485.089C241.525 485.189 241.57 485.325 241.57 485.466C241.57 485.608 241.525 485.744 241.446 485.844C241.366 485.944 241.258 486 241.146 486Z" fill="#CACACA"/>
<path d="M508.576 486H411.521C411.409 486 411.301 485.944 411.222 485.844C411.142 485.744 411.098 485.608 411.098 485.466C411.098 485.325 411.142 485.189 411.222 485.089C411.301 484.989 411.409 484.932 411.521 484.932H508.576C508.689 484.932 508.796 484.989 508.876 485.089C508.955 485.189 509 485.325 509 485.466C509 485.608 508.955 485.744 508.876 485.844C508.796 485.944 508.689 486 508.576 486Z" fill="#CACACA"/>
</g>
<defs>
<filter id="filter0_b" x="-271.2" y="-271.2" width="1317.4" height="1123.4" filterUnits="userSpaceOnUse" color-interpolation-filters="sRGB">
<feFlood flood-opacity="0" result="BackgroundImageFix"/>
<feGaussianBlur in="BackgroundImage" stdDeviation="135.6"/>
<feComposite in2="SourceAlpha" operator="in" result="effect1_backgroundBlur"/>
<feBlend mode="normal" in="SourceGraphic" in2="effect1_backgroundBlur" result="shape"/>
</filter>
<clipPath id="clip0">
<rect width="395" height="303" fill="white" transform="translate(114 183)"/>
</clipPath>
</defs>
</svg>
