<svg width="514" height="398" viewBox="0 0 514 398" fill="none" xmlns="http://www.w3.org/2000/svg">
<g clip-path="url(#clip0)">
<path d="M24.0414 396.854L24.148 396.037C24.1716 395.857 26.598 377.969 35.6936 367.588C44.7896 357.207 57.3262 358.02 57.4515 358.029L58.0231 358.072L57.9165 358.889C57.8928 359.068 55.4664 376.957 46.3709 387.337C37.2749 397.718 24.7383 396.906 24.613 396.896L24.0414 396.854ZM36.3104 368.729C28.62 377.506 25.8509 391.856 25.2584 395.465C27.8124 395.48 38.0711 394.965 45.754 386.196C53.4361 377.429 56.2113 363.072 56.8061 359.461C54.2506 359.445 43.9929 359.961 36.3104 368.729Z" fill="#F1F1F1"/>
<path d="M39.9276 372.71C35.7609 388.304 24.792 396.663 24.792 396.663C24.792 396.663 20.5787 379.74 24.7454 364.146C28.9121 348.552 39.881 340.193 39.881 340.193C39.881 340.193 44.0943 357.116 39.9276 372.71Z" fill="#F1F1F1"/>
<path d="M498.912 396.896C498.787 396.906 486.25 397.718 477.154 387.337C468.059 376.957 465.632 359.068 465.609 358.889L465.502 358.072L466.074 358.029C466.199 358.02 478.736 357.207 487.832 367.588C496.927 377.969 499.354 395.858 499.377 396.037L499.484 396.854L498.912 396.896ZM466.719 359.461C467.314 363.072 470.089 377.429 477.771 386.196C485.454 394.965 495.713 395.48 498.267 395.465C497.674 391.856 494.905 377.506 487.215 368.729C479.532 359.961 469.275 359.445 466.719 359.461H466.719Z" fill="#F1F1F1"/>
<path d="M483.598 372.71C487.764 388.304 498.733 396.663 498.733 396.663C498.733 396.663 502.947 379.74 498.78 364.146C494.613 348.552 483.644 340.193 483.644 340.193C483.644 340.193 479.431 357.116 483.598 372.71Z" fill="#F1F1F1"/>
<path d="M294.6 393.125L287.315 388.668L282.318 335.607H215.766L210.35 388.452L203.832 393.186C203.52 393.413 203.27 393.786 203.122 394.245C202.974 394.704 202.938 395.221 203.018 395.714C203.098 396.207 203.29 396.647 203.564 396.961C203.837 397.275 204.175 397.446 204.524 397.446H294C294.357 397.446 294.703 397.267 294.98 396.938C295.256 396.609 295.446 396.152 295.517 395.643C295.588 395.134 295.535 394.605 295.368 394.146C295.201 393.687 294.93 393.327 294.6 393.125V393.125Z" fill="#E6E6E6"/>
<path d="M412.866 342.667H85.9485C84.2333 342.661 82.5896 341.668 81.3781 339.903C80.1666 338.139 79.4862 335.749 79.4862 333.257V266.278H419.329V333.257C419.329 335.749 418.648 338.139 417.437 339.903C416.225 341.668 414.582 342.661 412.866 342.667Z" fill="#CCCCCC"/>
<path d="M419.67 297.934H79.1877V11.3439C79.1901 8.33633 80.0135 5.45291 81.4773 3.32626C82.9411 1.1996 84.9257 0.0033711 86.9957 0H411.862C413.932 0.00336913 415.917 1.19959 417.381 3.32624C418.844 5.4529 419.668 8.33632 419.67 11.3439V297.934Z" fill="#3F3D56"/>
<path d="M402.332 277.133H102.52C100.925 277.13 99.3946 276.208 98.2661 274.569C97.1377 272.929 96.5029 270.706 96.5011 268.387V29.5461C96.5029 27.2274 97.1376 25.0044 98.2661 23.3648C99.3945 21.7251 100.925 20.8028 102.52 20.8002H402.332C403.928 20.8028 405.458 21.7251 406.586 23.3648C407.715 25.0044 408.349 27.2274 408.351 29.5461V268.387C408.349 270.706 407.715 272.929 406.586 274.569C405.458 276.208 403.928 277.13 402.332 277.133V277.133Z" fill="white"/>
<path d="M513.238 398H0.792867C0.620294 398.005 0.451355 397.928 0.312374 397.779C0.173392 397.63 0.0721731 397.419 0.0244886 397.178C-0.00528134 397.014 -0.00874638 396.842 0.014357 396.676C0.0374603 396.509 0.0865144 396.353 0.157751 396.218C0.228987 396.084 0.320504 395.975 0.425258 395.9C0.530012 395.825 0.645213 395.786 0.761992 395.786H513.176C513.358 395.777 513.537 395.857 513.683 396.014C513.83 396.172 513.935 396.396 513.983 396.652C514.007 396.814 514.007 396.982 513.981 397.143C513.955 397.305 513.904 397.456 513.833 397.585C513.761 397.715 513.671 397.819 513.568 397.891C513.465 397.963 513.352 398 513.238 398Z" fill="#CCCCCC"/>
<path d="M158.953 111.127H109.624V117.857H158.953V111.127Z" fill="#E5E5E5"/>
<path d="M158.953 127.449H109.624V134.18H158.953V127.449Z" fill="#E5E5E5"/>
<path d="M158.953 144.133H109.624V150.863H158.953V144.133Z" fill="#E5E5E5"/>
<path d="M158.953 160.816H109.624V167.547H158.953V160.816Z" fill="#E5E5E5"/>
<path d="M147.269 182.016H121.308V187.857H147.269V182.016Z" fill="#6C63FF"/>
<path d="M235.71 152.872H235.239V154.928H235.71V152.872Z" fill="#E5E5E5"/>
<path d="M235.71 198.732H235.239V194.352H235.71V198.732ZM235.71 189.972H235.239V185.591H235.71V189.972ZM235.71 181.21H235.239V176.83H235.71V181.21ZM235.71 172.45H235.239V168.069H235.71V172.45ZM235.71 163.689H235.239V159.308H235.71V163.689Z" fill="#E5E5E5"/>
<path d="M235.71 203.113H235.239V205.169H235.71V203.113Z" fill="#E5E5E5"/>
<path d="M287.359 152.872H286.887V154.928H287.359V152.872Z" fill="#E5E5E5"/>
<path d="M287.359 198.732H286.887V194.352H287.359V198.732ZM287.359 189.972H286.887V185.591H287.359V189.972ZM287.359 181.21H286.887V176.83H287.359V181.21ZM287.359 172.45H286.887V168.069H287.359V172.45ZM287.359 163.689H286.887V159.308H287.359V163.689Z" fill="#E5E5E5"/>
<path d="M287.359 203.113H286.887V205.169H287.359V203.113Z" fill="#E5E5E5"/>
<path d="M313.412 112.652H312.94V114.708H313.412V112.652Z" fill="#E5E5E5"/>
<path d="M313.412 198.903H312.94V194.694H313.412V198.903ZM313.412 190.484H312.94V186.274H313.412V190.484ZM313.412 182.064H312.94V177.855H313.412V182.064ZM313.412 173.645H312.94V169.435H313.412V173.645ZM313.412 165.225H312.94V161.015H313.412V165.225ZM313.412 156.806H312.94V152.596H313.412V156.806ZM313.412 148.386H312.94V144.177H313.412V148.386ZM313.412 139.967H312.94V135.757H313.412V139.967ZM313.412 131.547H312.94V127.338H313.412V131.547ZM313.412 123.128H312.94V118.918H313.412V123.128Z" fill="#E5E5E5"/>
<path d="M313.412 203.113H312.94V205.169H313.412V203.113Z" fill="#E5E5E5"/>
<path d="M339.205 96.2051H338.733V98.261H339.205V96.2051Z" fill="#E5E5E5"/>
<path d="M339.205 198.919H338.733V194.725H339.205V198.919ZM339.205 190.531H338.733V186.337H339.205V190.531ZM339.205 182.143H338.733V177.949H339.205V182.143ZM339.205 173.755H338.733V169.56H339.205V173.755ZM339.205 165.366H338.733V161.172H339.205V165.366ZM339.205 156.978H338.733V152.784H339.205V156.978ZM339.205 148.59H338.733V144.396H339.205V148.59ZM339.205 140.202H338.733V136.008H339.205V140.202ZM339.205 131.814H338.733V127.62H339.205V131.814ZM339.205 123.426H338.733V119.231H339.205V123.426ZM339.205 115.037H338.733V110.843H339.205V115.037ZM339.205 106.649H338.733V102.455H339.205V106.649Z" fill="#E5E5E5"/>
<path d="M339.205 203.113H338.733V205.169H339.205V203.113Z" fill="#E5E5E5"/>
<path d="M261.652 125.331H261.181V127.387H261.652V125.331Z" fill="#E5E5E5"/>
<path d="M261.652 199.127H261.181V195.142H261.652V199.127ZM261.652 191.156H261.181V187.171H261.652V191.156ZM261.652 183.185H261.181V179.2H261.652V183.185ZM261.652 175.214H261.181V171.228H261.652V175.214ZM261.652 167.243H261.181V163.257H261.652V167.243ZM261.652 159.271H261.181V155.286H261.652V159.271ZM261.652 151.3H261.181V147.315H261.652V151.3ZM261.652 143.329H261.181V139.343H261.652V143.329ZM261.652 135.358H261.181V131.372H261.652V135.358Z" fill="#E5E5E5"/>
<path d="M261.652 203.113H261.181V205.169H261.652V203.113Z" fill="#E5E5E5"/>
<path d="M365.366 206.124H209.213C209.083 206.124 208.959 206.049 208.867 205.916C208.775 205.782 208.724 205.602 208.724 205.414V96.6708C208.724 96.4825 208.775 96.3019 208.867 96.1687C208.959 96.0356 209.083 95.9608 209.213 95.9608C209.342 95.9608 209.466 96.0356 209.558 96.1687C209.65 96.3019 209.701 96.4825 209.701 96.6708V204.704H365.366C365.495 204.704 365.62 204.778 365.711 204.911C365.803 205.045 365.854 205.225 365.854 205.414C365.854 205.602 365.803 205.782 365.711 205.916C365.62 206.049 365.495 206.124 365.366 206.124V206.124Z" fill="#3F3D56"/>
<path d="M287.337 153.826L261.375 125.572L235.767 153.44L235.181 152.303L261.375 123.798L287.213 151.917L312.89 111.092L312.993 111.031L338.893 95.869L339.259 97.187L313.461 112.288L287.337 153.826Z" fill="#3F3D56"/>
<path d="M235.474 157.132C237.094 157.132 238.406 155.225 238.406 152.872C238.406 150.519 237.094 148.612 235.474 148.612C233.855 148.612 232.542 150.519 232.542 152.872C232.542 155.225 233.855 157.132 235.474 157.132Z" fill="#6C63FF"/>
<path d="M261.375 129.441C262.994 129.441 264.307 127.533 264.307 125.181C264.307 122.828 262.994 120.921 261.375 120.921C259.755 120.921 258.443 122.828 258.443 125.181C258.443 127.533 259.755 129.441 261.375 129.441Z" fill="#6C63FF"/>
<path d="M287.275 157.132C288.895 157.132 290.207 155.225 290.207 152.872C290.207 150.519 288.895 148.612 287.275 148.612C285.656 148.612 284.343 150.519 284.343 152.872C284.343 155.225 285.656 157.132 287.275 157.132Z" fill="#6C63FF"/>
<path d="M313.176 115.95C314.795 115.95 316.108 114.043 316.108 111.69C316.108 109.337 314.795 107.43 313.176 107.43C311.556 107.43 310.244 109.337 310.244 111.69C310.244 114.043 311.556 115.95 313.176 115.95Z" fill="#6C63FF"/>
<path d="M339.076 100.33C340.696 100.33 342.008 98.4225 342.008 96.0697C342.008 93.7169 340.696 91.8095 339.076 91.8095C337.457 91.8095 336.144 93.7169 336.144 96.0697C336.144 98.4225 337.457 100.33 339.076 100.33Z" fill="#6C63FF"/>
<path d="M174.37 20.8H173.371V277.133H174.37V20.8Z" fill="#E5E5E5"/>
<path d="M409.762 274.51C410.106 273.913 410.357 273.214 410.496 272.462C410.635 271.709 410.658 270.922 410.565 270.155C410.471 269.388 410.263 268.66 409.956 268.022C409.648 267.385 409.247 266.853 408.783 266.464L411.22 247.864L404.969 251.649L403.613 268.732C403.215 269.909 403.129 271.258 403.37 272.521C403.611 273.785 404.163 274.877 404.921 275.589C405.679 276.301 406.59 276.584 407.482 276.386C408.375 276.187 409.185 275.519 409.762 274.51V274.51Z" fill="#FFB7B7"/>
<path d="M440.93 388.644H435.637L433.119 358.982L440.931 358.982L440.93 388.644Z" fill="#FFB7B7"/>
<path d="M442.279 396.099L425.213 396.098V395.785C425.213 393.225 425.913 390.77 427.158 388.96C428.404 387.15 430.094 386.133 431.856 386.133H431.856L442.28 386.134L442.279 396.099Z" fill="#2F2E41"/>
<path d="M412.004 388.644H406.711L404.193 358.982L412.005 358.982L412.004 388.644Z" fill="#FFB7B7"/>
<path d="M412.058 396.099L394.991 396.098V395.785C394.992 393.225 395.692 390.77 396.937 388.96C398.183 387.15 399.873 386.133 401.634 386.133H401.635L412.059 386.134L412.058 396.099Z" fill="#2F2E41"/>
<path d="M411.57 263.365L406.389 280.706L402.115 380.38L412.909 379.752L415.857 332.238L424.95 289.917L430.178 337.098L432.337 378.497L441.268 379.059L444.826 263.365H411.57Z" fill="#2F2E41"/>
<path d="M437.467 177.795L422.451 178.34L413.636 184.916L413.152 233.428L407.654 266.921C407.654 266.921 442.007 270.356 446.756 265.338L441.143 227.074L448.671 185.722L437.467 177.795Z" fill="#6C63FF"/>
<path d="M415.24 185.674L413.636 184.916C413.636 184.916 408.548 189.66 409.032 201.13C409.032 201.13 408.841 207.066 409.023 211.016C409.232 215.547 402.979 260.57 402.979 260.57H412.045L415.931 219.798L415.24 185.674Z" fill="#6C63FF"/>
<path d="M448.436 275.137C448.091 274.54 447.841 273.841 447.702 273.089C447.563 272.337 447.54 271.549 447.633 270.782C447.726 270.015 447.934 269.287 448.242 268.649C448.55 268.012 448.95 267.48 449.415 267.092L446.978 248.491L453.229 252.276L454.585 269.359C454.982 270.537 455.069 271.885 454.827 273.149C454.586 274.413 454.035 275.504 453.277 276.216C452.519 276.928 451.607 277.212 450.715 277.013C449.823 276.814 449.012 276.146 448.436 275.137V275.137Z" fill="#FFB7B7"/>
<path d="M446.412 186.301L448.016 185.543C448.016 185.543 453.104 190.287 452.619 201.758C452.619 201.758 452.81 207.693 452.628 211.643C452.419 216.174 455.218 261.198 455.218 261.198H446.152L442.267 220.425L446.412 186.301Z" fill="#6C63FF"/>
<path d="M441.153 157.442C441.153 160.433 440.542 163.357 439.399 165.844C438.255 168.331 436.629 170.27 434.727 171.414C432.825 172.559 430.732 172.859 428.713 172.275C426.694 171.692 424.839 170.251 423.384 168.136C421.928 166.021 420.937 163.326 420.535 160.393C420.133 157.459 420.339 154.418 421.127 151.655C421.915 148.891 423.249 146.529 424.961 144.867C426.673 143.206 428.685 142.319 430.744 142.319V142.319C432.107 142.314 433.458 142.699 434.719 143.452C435.98 144.206 437.127 145.313 438.094 146.71C439.06 148.108 439.828 149.768 440.353 151.597C440.878 153.425 441.15 155.386 441.153 157.367C441.153 157.392 441.153 157.417 441.153 157.442Z" fill="#FFB7B7"/>
<path d="M420.37 137.128C421.589 133.319 423.949 134.072 426.012 135.363C428.626 134.521 431.111 132 433.927 133.491C436.701 139.352 446.013 137.628 444.032 147.17C444.029 149.456 446.993 148.125 446.476 151.87C448.046 159.077 440.809 172.726 436.654 169.852C437.681 167.115 440.029 160.901 436.468 160.284C428.81 170.638 435.678 140.569 426.055 149.313C422.869 153.55 418.507 141.366 420.37 137.128Z" fill="#2F2E41"/>
</g>
<defs>
<clipPath id="clip0">
<rect width="514" height="398" fill="white"/>
</clipPath>
</defs>
</svg>
